<?xml version="1.0" encoding="utf-8"?>
<!-- Generator: Adobe Illustrator 21.1.0, SVG Export Plug-In . SVG Version: 6.00 Build 0)  -->
<svg version="1.1" id="Calque_1" xmlns="http://www.w3.org/2000/svg" xmlns:xlink="http://www.w3.org/1999/xlink" x="0px" y="0px"
	 viewBox="0 60 432 300" style="enable-background:new 0 60 432 300;" xml:space="preserve">
<style type="text/css">
	.st0{fill:#B0444D;}
	.st1{fill:#C1292E;}
	.st2{fill:#020203;}
	.st3{fill:#F39323;}
	.st4{fill:#1B1B1B;}
	.st5{fill:#8EC045;}
	.st6{fill:#2DABE3;}
	.st7{fill:#DEBF80;}
	.st8{fill:#CD9C61;}
	.st9{fill:#F9B03D;}
	.st10{fill:#009245;}
	.st11{fill:#DC93AB;}
	.st12{fill:#BAC4AA;}
	.st13{fill:#BEBDBE;}
	.st14{fill:#BDB0A3;}
	.st15{fill:#768DAF;}
	.st16{fill:#6FA1BD;}
	.st17{fill:#C0C0BF;}
	.st18{fill:#93B75A;}
	.st19{fill:#C88C5E;}
	.st20{fill:#BA9BC9;}
	.st21{fill:#6BC4CD;}
	.st22{fill:#828BC5;}
	.st23{fill:#E2A85A;}
	.st24{fill:#EAB063;}
	.st25{fill:#C53C46;}
	.st26{fill:#E56D48;}
	.st27{fill:#5BB063;}
	.st28{fill:#F3977C;}
	.st29{fill:#1C907F;}
	.st30{fill:#B190C2;}
	.st31{fill:#C1944E;}
	.st32{fill:#F4A08D;}
	.st33{fill:#C17A3B;}
	.st34{fill:#C1906B;}
	.st35{fill:#BC373C;}
	.st36{fill:#DD7629;}
	.st37{fill:#A982B9;}
	.st38{fill:#343434;}
	.st39{fill:#EE7DAF;}
	.st40{fill:#B0D49A;}
	.st41{fill:#FED47A;}
	.st42{fill:#47AC6C;}
	.st43{fill:#FCC02D;}
	.st44{fill:#F28D36;}
	.st45{fill:#3BB0D7;}
	.st46{fill:#F18FA9;}
	.st47{fill:#E497AC;}
	.st48{fill:#F9D0DD;}
	.st49{fill:#FCC44A;}
	.st50{fill:#9F4E53;}
	.st51{fill:#EFC14F;}
	.st52{fill:#E2934E;}
	.st53{fill:#CDCCCC;}
	.st54{fill:#00A2B3;}
	.st55{fill:#EE751B;}
	.st56{fill:#CD242A;}
	.st57{fill:#48A6A0;}
	.st58{fill:#544842;}
	.st59{fill:#7CB5A8;}
	.st60{fill:#4E8896;}
	.st61{fill:#CC91AC;}
	.st62{fill:#57A272;}
	.st63{fill:#67A2B5;}
	.st64{fill:#C98D30;}
	.st65{fill:#D34B4B;}
	.st66{fill:#D98181;}
	.st67{fill:#947552;}
	.st68{fill:#521B29;}
	.st69{fill:#7B4754;}
	.st70{fill:#B29F8B;}
	.st71{fill:#F1B672;}
	.st72{fill:#A37C4D;}
	.st73{fill:#7392A0;}
	.st74{fill:#8C4044;}
	.st75{fill:#A97779;}
	.st76{fill:#A58594;}
	.st77{fill:#60314A;}
	.st78{fill:#944C71;}
</style>
<g>
	<path class="st9" d="M273.1,247.2c0.2-0.4,0.4-0.8,0.6-1.2c2.7-5.2,6.4-9.6,11.2-13c2.3-1.6,4.8-2.9,7.6-3.7
		c5.5-1.6,10.9-1.1,16,1.5c4.5,2.3,8.3,5.3,11.2,9.4c2.3,3.1,3.7,6.5,4,10.4c0.3,3.6-0.1,7.1-1.1,10.5c-0.7,2.3-1.8,4.4-3.1,6.4
		c-3.2,5-7.5,8.7-12.9,10.9c-6.3,2.6-12.9,3.2-19.6,1.5c-0.8-0.2-1.5-0.1-2.1,0.4c-1.2,0.8-2.3,1.8-3.2,2.8c-1.3,1.5-2.6,3-3.9,4.5
		c-2.8,3.5-5.3,7.2-7.9,10.9c-2.2,3.2-4.3,6.3-6.6,9.4c-1.8,2.6-3.9,4.9-6.3,7c-1.2,1.1-2.5,2.1-4,2.8c-1.9,1-3.9,1.4-6.1,1.3
		c-3.3-0.2-6.4-2.6-6.4-6.7c0-2.1,0.6-4,1.6-5.9c1.2-2.3,2.7-4.4,4.3-6.3c2.5-2.9,5.3-5.5,8.1-8.1c3.1-2.9,6.2-5.8,9.1-9
		c2.4-2.7,4.8-5.3,6.9-8.2c1-1.5,2-3.1,3-4.6c0.2-0.3,0.2-0.6,0-0.9c-0.7-1.2-1.1-2.5-1.5-3.9c-0.6-2.2-1-4.5-1.1-6.8
		c-0.2-3,0.1-6,1-8.9C272.4,248.9,272.7,248,273.1,247.2z M283.7,246.7c0.8,0.1,1.5,0.2,2.3,0.3c0.6,0.1,1.1,0.3,1.7,0.6
		c1.2,0.5,1.7,1.5,1.8,2.8c0,0.8-0.1,1.6-0.2,2.4c-0.2,1.3-0.5,2.7-0.7,4c-0.1,0.5-0.1,1-0.1,1.6c0,0.5,0.1,0.6,0.7,0.6
		c1.1,0,2.1-0.1,3.2-0.2c0.8-0.1,1.7-0.2,2.5-0.3c0.5,0,1,0,1.5,0c1.2,0.1,2,0.9,2.2,2.1c0.1,0.4,0.1,0.8,0.1,1.2
		c0,1.6,0.1,3.2,0.1,4.8c0,0.5,0.1,0.9,0.2,1.4c0.4,0,0.7-0.1,1-0.1c1.2-0.3,2.4-0.6,3.6-0.9c0.9-0.2,1.8-0.4,2.8-0.5
		c0.4-0.1,0.9-0.1,1.4,0c1.3,0.1,2.3,0.8,2.9,2c0.5,0.9,0.9,1.9,1.3,2.9c0.1,0.2,0.2,0.5,0.3,0.7c2-1.2,5.4-5.6,6.2-7.5
		c-0.7-0.4-1.5-0.7-2.2-1.1c-9.6-5.3-17.8-12.3-24.2-21.2c-1.7-2.4-3.1-4.9-3.9-7.7c0-0.1-0.1-0.2-0.2-0.5c-0.2,0.1-0.3,0.3-0.5,0.4
		c-1.8,1.2-3.5,2.5-5.1,4c-0.4,0.4-0.6,0.7-0.6,1.3c-0.1,1.4-0.3,2.8-0.4,4.2c-0.1,0.8,0,1.6,0.1,2.6
		C282.2,246.5,283,246.6,283.7,246.7z M310,273.7c-0.1-0.3-0.2-0.5-0.3-0.8c-0.4-1-0.9-2-1.3-3c-0.3-0.7-0.9-1-1.6-0.9
		c-0.8,0.1-1.6,0.3-2.4,0.4c-1.3,0.3-2.5,0.6-3.8,0.9c-0.6,0.1-1.2,0.2-1.8,0.2c-0.9,0-1.6-0.5-2-1.3c-0.3-0.6-0.5-1.2-0.5-1.9
		c-0.1-1.6-0.1-3.3-0.2-4.9c0-0.4,0-0.9,0-1.4c-0.4,0-0.7,0-0.9,0c-1,0.1-1.9,0.2-2.9,0.3c-1.1,0.1-2.3,0.2-3.4,0.1
		c-1.6-0.1-2.6-1-2.9-2.5c-0.2-1-0.1-2.1,0.1-3.1c0.2-1.4,0.5-2.7,0.7-4.1c0-0.3,0.1-0.6,0.1-0.8c0.1-0.8-0.1-1-0.8-1.2
		c-1-0.2-2.1-0.3-3.1-0.5c-0.7-0.1-1.3-0.2-2-0.3c-1-0.1-1.7-0.7-2-1.7c-0.2-0.5-0.2-1.1-0.3-1.6c-0.1-0.9,0-1.8-0.1-2.7
		c-1,0.6-3.5,5.5-4.3,8.2c-0.8,3-1,6.1-0.6,9.2c0.2,0,0.3,0.1,0.5,0.1c2.9,0.1,5.6,1,8.1,2.6c3.8,2.4,7,5.4,9.4,9.2
		c1,1.7,1.8,3.4,2.5,5.3c0.1,0.2,0.1,0.4,0.2,0.7C300,278.2,305.2,276.8,310,273.7z M259.6,290.9c-0.1,0.1-0.2,0.1-0.2,0.2
		c-3.5,3.3-7.1,6.6-10.3,10.1c-1.8,2-3.4,4.1-4.6,6.6c-0.7,1.4-1.2,2.9-1.2,4.5c-0.1,2.7,1.9,4.1,3.9,4.2c1.7,0.1,3.3-0.3,4.7-1
		c1.2-0.6,2.2-1.4,3.2-2.2c2.1-1.8,3.9-3.9,5.6-6.1c2.2-2.7,4.1-5.7,6-8.6c0.3-0.4,0.6-0.8,0.9-1.3
		C264.6,295.5,261.7,293.7,259.6,290.9z M320.3,259.8c-0.3-0.1-0.6-0.3-0.9-0.4c-2.1-1.1-3.3-2.9-4-5.1c-0.7-2.1-0.9-4.3-0.7-6.5
		c0-0.4,0.1-0.8,0.1-1.4c-0.2,0.2-0.4,0.4-0.5,0.5c-1.2,1.1-2.5,2.1-4.1,2.8c-1.2,0.5-2.4,0.7-3.7,0.5c-2-0.3-3.1-1.7-2.9-3.7
		c0.1-1.3,0.6-2.5,1.2-3.6c0.7-1.2,1.6-2.3,2.6-3.4c0.2-0.2,0.4-0.4,0.6-0.6c-0.2-0.2-0.5-0.1-0.7-0.1c-2,0.1-3.9,0-5.7-0.7
		c-1-0.4-2-0.9-2.9-1.5c-1.6-1.2-2.5-2.7-2.8-4.7c0-0.2-0.1-0.5-0.1-0.7c-1.9,0.3-3.8,0.9-5.5,1.7c0.4,1.5,0.8,2.9,1.5,4.1
		c0.6,1.1,1.2,2.1,1.8,3.1c4.6,6.6,10.2,12.1,16.8,16.7c2.4,1.6,4.9,3.1,7.3,4.6c0.6,0.3,1.2,0.6,1.8,0.9
		C319.8,261.3,320.1,260.6,320.3,259.8z M283,278.5c-2.9-1.6-5.5-3.6-7.5-6.3c-2,3.1-4.1,6.2-6.5,8.9c-2.4,2.7-4.9,5.4-7.4,8.1
		c0.2,0.3,0.4,0.6,0.6,0.9c0.5,0.5,1,1,1.5,1.5c1.5,1.3,3.1,2.4,4.9,3.3c0.2,0.1,0.4,0.2,0.6,0.3C273.4,289.2,277.4,283.2,283,278.5
		z M291.3,277.4c-1.3-3.3-3.3-6.3-5.9-8.7c-2-1.8-4.1-3.4-6.6-4.6c-1.4-0.7-3-1-4.6-1.1c0,0.3,0.1,0.5,0.1,0.7
		c1,4.9,3.9,8.5,7.9,11.3c1.3,0.9,2.7,1.7,4.2,2.2c0.8,0.3,1.7,0.4,2.6,0.6c0.7,0.1,1.4,0.2,2.1,0.3c0.1,0,0.3,0,0.4,0
		C291.5,277.8,291.4,277.6,291.3,277.4z M313.6,237.3c-0.1,0-0.1,0-0.2,0.1c-1.6,1.4-3.2,2.7-4.6,4.3c-0.9,1-1.7,2.1-2.2,3.4
		c-0.2,0.5-0.3,1-0.4,1.5c-0.1,0.8,0.1,1.1,0.9,1.1c0.8,0.1,1.6-0.1,2.4-0.5c1-0.5,2-1.1,2.8-1.9c0.8-0.8,1.5-1.6,2.3-2.5
		c0.7-0.8,1.3-1.7,2-2.5C315.7,239.2,314.7,238.2,313.6,237.3z M318.3,243c-1.1,3.3-1.5,6.7-0.6,10.1c0.3,1.2,0.9,2.2,1.7,3.1
		c0.4,0.5,0.9,0.8,1.6,1.1c0.9-5.1,0.4-9.9-2.5-14.4C318.3,242.9,318.3,242.9,318.3,243z M300.1,234.5c1.3,1,2.9,1.5,4.5,1.7
		c2.1,0.2,4.2,0,6.2-0.6c0.1,0,0.1,0,0.2-0.1c0,0,0.1-0.1,0.2-0.1c-3.8-2.8-7.9-4.5-12.8-4.4C298.4,232.4,299,233.6,300.1,234.5z"/>
	<g>
		<path class="st9" d="M137.4,120.4c-0.9,0-1.7,0-2.5,0c-0.8,0-1.5,0-2.3,0.1c-0.6,0.1-1.2,0.2-1.7,0.4c-1.2,0.4-1.9,1.3-2,2.6
			c-0.1,0.8-0.1,1.6,0,2.4c0.1,1.4,0.2,2.7,0.3,4c0,0.5,0,1-0.1,1.6c-0.1,0.5-0.2,0.6-0.7,0.5c-1.1-0.1-2.1-0.3-3.2-0.5
			c-0.8-0.1-1.7-0.4-2.5-0.5c-0.5-0.1-1-0.1-1.5-0.1c-1.2,0-2.1,0.7-2.4,1.9c-0.1,0.4-0.1,0.8-0.2,1.2c-0.2,1.6-0.4,3.2-0.6,4.7
			c-0.1,0.4-0.2,0.9-0.3,1.4c-0.4-0.1-0.7-0.1-0.9-0.2c-1.2-0.4-2.4-0.8-3.5-1.2c-0.9-0.3-1.8-0.6-2.7-0.8c-0.4-0.1-0.9-0.2-1.4-0.2
			c-1.3,0-2.4,0.6-3.1,1.7c-0.6,0.9-1,1.8-1.6,2.7c-0.1,0.2-0.2,0.5-0.4,0.7c-1.9-1.3-4.9-6.1-5.5-8.1c0.8-0.3,1.5-0.6,2.3-0.9
			c10.1-4.4,18.9-10.5,26.2-18.8c1.9-2.2,3.5-4.5,4.6-7.3c0-0.1,0.1-0.2,0.2-0.4c0.2,0.2,0.3,0.3,0.4,0.4c1.7,1.4,3.3,2.8,4.6,4.5
			c0.3,0.4,0.5,0.8,0.5,1.3c0,1.4,0.1,2.8,0,4.2C137.7,118.7,137.5,119.5,137.4,120.4z"/>
		<path class="st1" d="M121.3,150.8c-5.6-0.6-10.7-2.4-15.1-6c0.1-0.3,0.3-0.5,0.4-0.8c0.5-1,1.1-1.9,1.6-2.9
			c0.4-0.7,0.9-0.9,1.7-0.7c0.8,0.2,1.6,0.4,2.4,0.7c1.2,0.4,2.4,0.9,3.7,1.3c0.6,0.2,1.2,0.3,1.8,0.4c0.9,0.1,1.7-0.3,2.1-1.1
			c0.3-0.6,0.6-1.2,0.7-1.8c0.3-1.6,0.4-3.2,0.6-4.9c0.1-0.4,0.1-0.9,0.2-1.4c0.4,0,0.7,0,0.9,0.1c0.9,0.2,1.9,0.4,2.8,0.6
			c1.1,0.2,2.2,0.4,3.4,0.4c1.6,0.1,2.7-0.7,3.1-2.3c0.3-1,0.3-2.1,0.2-3.1c-0.1-1.4-0.2-2.7-0.3-4.1c0-0.3,0-0.6,0-0.9
			c0-0.8,0.2-1,1-1.1c1-0.1,2.1-0.1,3.1-0.2c0.7,0,1.4,0,2-0.1c1,0,1.7-0.6,2.1-1.5c0.2-0.5,0.4-1,0.4-1.6c0.1-0.9,0.2-1.8,0.3-2.7
			c0.9,0.7,3,5.8,3.4,8.6c0.6,3.1,0.4,6.2-0.3,9.2c-0.2,0-0.3,0-0.5,0c-2.9-0.2-5.7,0.5-8.3,1.8c-4,2-7.5,4.7-10.2,8.2
			c-1.2,1.6-2.1,3.2-3,5C121.5,150.3,121.4,150.5,121.3,150.8z"/>
		<path class="st1" d="M146,172.4c3.2-1.5,6.3-3,8.7-5.6c0.1,0.1,0.2,0.1,0.2,0.2c3.2,3.6,6.4,7.2,9.3,11.1c1.6,2.2,3,4.4,4,7
			c0.6,1.5,0.9,3,0.8,4.6c-0.2,2.7-2.3,3.9-4.3,3.8c-1.7-0.1-3.2-0.6-4.6-1.5c-1.1-0.7-2.1-1.6-3-2.5c-1.9-2-3.5-4.3-5-6.6
			c-1.9-2.9-3.5-6-5.2-9.1C146.5,173.3,146.3,172.9,146,172.4z"/>
		<path class="st10" d="M97.8,132.4c-0.2-0.9-0.3-1.6-0.5-2.4c0.3-0.1,0.6-0.2,1-0.3c2.2-0.9,3.6-2.6,4.5-4.6c0.9-2,1.3-4.2,1.3-6.4
			c0-0.4,0-0.8,0-1.4c0.2,0.2,0.4,0.4,0.5,0.5c1.1,1.3,2.3,2.4,3.8,3.1c1.1,0.6,2.4,0.9,3.7,0.8c2-0.1,3.2-1.4,3.2-3.4
			c0-1.3-0.4-2.5-0.9-3.7c-0.6-1.3-1.3-2.5-2.2-3.6c-0.2-0.2-0.3-0.4-0.5-0.7c0.3-0.2,0.5,0,0.7,0c1.9,0.3,3.9,0.3,5.8-0.1
			c1.1-0.3,2.1-0.7,3-1.2c1.7-1,2.7-2.5,3.2-4.4c0.1-0.2,0.1-0.5,0.2-0.7c1.9,0.5,3.6,1.3,5.3,2.2c-0.5,1.4-1.1,2.8-1.9,4
			c-0.7,1-1.4,2-2.1,2.9c-5.2,6.1-11.3,11.1-18.4,15c-2.5,1.4-5.1,2.6-7.7,3.8C99.1,132,98.5,132.1,97.8,132.4z"/>
		<path class="st9" d="M144.7,170.1c-3.6-6.3-7-12.7-12.1-17.9c3.1-1.3,5.8-3.1,8.1-5.6c1.7,3.3,3.5,6.5,5.6,9.5
			c2.2,2.9,4.4,5.8,6.6,8.8c-0.2,0.3-0.4,0.6-0.7,0.8c-0.5,0.5-1,0.9-1.6,1.3c-1.6,1.1-3.3,2.1-5.2,2.8
			C145.2,169.9,145,170,144.7,170.1z"/>
		<path class="st10" d="M124.1,150.9c0.1-0.3,0.2-0.5,0.3-0.7c1.6-3.2,3.8-5.9,6.7-8.1c2.2-1.6,4.4-3,7-3.9c1.5-0.5,3.1-0.7,4.7-0.6
			c-0.1,0.3-0.1,0.5-0.2,0.7c-1.5,4.8-4.7,8.1-9,10.5c-1.4,0.8-2.8,1.4-4.3,1.8c-0.9,0.2-1.8,0.3-2.7,0.4c-0.7,0.1-1.4,0.1-2.2,0.1
			C124.4,151,124.2,151,124.1,150.9z"/>
		<path class="st9" d="M102.9,110.8c1-1,2.1-1.9,3.2-2.6c0.1,0,0.1,0.1,0.2,0.1c1.5,1.5,2.9,3,4.2,4.7c0.8,1.1,1.5,2.2,1.9,3.6
			c0.2,0.5,0.2,1,0.3,1.5c0.1,0.8-0.2,1.1-1,1c-0.8,0-1.6-0.3-2.4-0.7c-1-0.6-1.9-1.3-2.6-2.2c-0.7-0.9-1.4-1.8-2-2.7
			C104.1,112.7,103.5,111.8,102.9,110.8z"/>
		<path class="st9" d="M100.8,113.2c0.1,0.1,0.1,0.1,0.1,0.2c0.8,3.4,0.8,6.8-0.4,10.1c-0.4,1.1-1.1,2.1-1.9,2.9
			c-0.5,0.4-1,0.7-1.7,0.9C96.5,122.1,97.5,117.4,100.8,113.2z"/>
		<path class="st9" d="M121.9,103.4c-0.2,1.5-0.9,2.6-2.1,3.3c-1.4,0.9-3,1.2-4.6,1.2c-2.1,0-4.2-0.4-6.1-1.2c-0.1,0-0.1,0-0.2-0.1
			c0,0-0.1-0.1-0.1-0.1C112.8,104.1,117.1,102.8,121.9,103.4z"/>
	</g>
	<g>
		<path class="st10" d="M61.1,241.7c0-9.1,0.1-18.2,0.1-27.3c0-2.1,0-4.3,0-6.4c0-0.3,0-0.5-0.2-0.7c-1.6-1.4-2.8-3.2-3.9-5
			c-0.4-0.7-0.7-1.5-0.9-2.4c-0.3-1.8,0.4-3,2.1-3.5c0.7-0.2,1.5-0.3,2.3-0.4c2.6-0.1,5.2-0.2,7.9-0.3c3.8-0.1,7.5-0.2,11.3-0.3
			c1.3,0,2.7,0,4,0.3c0.7,0.2,1.4,0.4,1.9,0.8c0.9,0.6,1.2,1.5,0.9,2.5c-0.2,0.6-0.5,1.2-0.8,1.8c-0.9,1.5-1.9,2.9-3,4.3
			c-0.6,0.7-1.2,1.4-1.8,2.1c-0.2,0.2-0.3,0.4-0.3,0.7c0,2.6-0.1,5.3-0.1,7.9c0,0.1,0,0.3,0,0.5c6.8-0.1,13.5-0.2,20.3-0.3
			c0.2-5.3,0.3-10.5,0.4-15.7c-0.3-0.1-0.6-0.2-0.9-0.3c-1.3-0.5-2.1-1.5-2.4-2.8c-0.3-1.8-0.1-3.7,0.6-5.4c0.6-1.7,1.8-2.7,3.6-3
			c1.1-0.2,2.2-0.3,3.3-0.3c5.5-0.1,11,0,16.5-0.3c2.4-0.1,4.7-0.2,7.1-0.2c1.8,0,3.6,0.1,5.3,0.7c1.8,0.6,2.8,1.8,3,3.8
			c0,0.1,0,0.2,0,0.3c0.1,1.6,0.1,3.1-0.3,4.7c-0.5,1.7-1.7,2.8-3.5,3.1c-0.3,0-0.5,0.1-0.8,0.2c-0.3,14.1-0.7,28.1-1,42.2
			c0.2,0,0.3,0,0.4,0.1c1.1,0.3,2.1,0.5,3.2,0.8c1.5,0.4,2.5,1.5,2.8,3.1c0.2,0.9,0.3,1.9,0.4,2.9c0.1,3.1,0,6.2-0.4,9.3
			c-0.1,0.9-0.3,1.8-0.7,2.7c-0.6,1.6-1.8,2.3-3.4,2.3c-2.5,0-4.9,0.1-7.4,0.1c-0.1,0-0.3,0-0.4,0c-0.4,1.3-0.7,2.5-1.2,3.7
			c-0.9,2.3-2.3,4.1-4.3,5.6c-1.2,0.9-2.6,1.5-4.1,1.8c-1.3,0.2-2.6,0.2-3.9,0c-1.9-0.3-3.6-1-5.1-2.2c-2-1.6-3.2-3.8-3.8-6.3
			c-0.1-0.5-0.2-1-0.3-1.6c-5.2-0.3-10.4,0.2-15.6,0.2c-0.3,0.8-0.5,1.5-0.7,2.2c-0.9,2.3-2.3,4.3-4.3,5.8c-1.1,0.8-2.3,1.5-3.7,1.7
			c-1.5,0.3-3,0.3-4.4,0c-1.9-0.3-3.6-1-5.1-2.2c-2.2-1.8-3.4-4.2-3.9-7c-0.1-0.5-0.1-1-0.2-1.5c-0.5,0-0.9-0.1-1.4-0.1
			c-1.7-0.1-3.3-0.4-4.9-1c-1.7-0.7-2.7-1.9-3.1-3.7c-0.1-0.4-0.1-0.8-0.2-1.2c-0.1-1.4-0.2-2.8-0.3-4.2c-0.1-1.9-0.2-3.7,0-5.6
			c0.1-1.1,0.3-2.1,0.7-3.1c0.6-1.4,1.5-2.3,3-2.6c0.5-0.1,0.9-0.2,1.5-0.3C61.1,242.5,61.1,242.1,61.1,241.7z M66.5,259.4
			c0.9-2.7,2.5-4.8,4.9-6.4c2-1.3,4.2-1.8,6.6-1.6c3.9,0.4,6.8,2.4,8.9,5.6c1,1.6,1.5,3.3,1.6,5.2c0,0.2,0,0.4,0,0.7
			c5.1-0.1,10.1-0.5,15.2-0.2c0.1-0.5,0.1-0.9,0.2-1.4c0.6-2.9,1.8-5.3,4.1-7.3c2.9-2.5,6.2-3.2,9.8-2.2c4.1,1.1,6.9,3.8,8.2,7.9
			c0.2,0.6,0.3,1.3,0.4,1.9c0.2,0,0.4,0,0.6,0c2.3,0,4.5-0.1,6.8-0.1c1,0,1.3-0.2,1.5-1.2c0.2-1,0.4-2,0.5-3
			c0.2-2.7,0.3-5.5,0.1-8.2c0-0.5-0.1-0.9-0.2-1.4c-0.1-0.7-0.5-1.2-1.2-1.3c-1-0.2-2-0.5-3-0.7c-3.3-0.5-6.6-0.6-9.9-0.7
			c-6.6-0.2-13.3-0.1-19.9-0.1c-4.6,0.1-9.3,0.2-13.9,0.2c-4.3,0-8.7-0.1-13-0.1c-4.1,0-8.2,0-12.3,0.3c-0.8,0.1-1.5,0.2-2.3,0.3
			c-0.8,0.1-1.2,0.6-1.4,1.3c-0.2,0.9-0.4,1.7-0.5,2.6c-0.2,1.9-0.1,3.8,0.1,5.8c0.1,1.2,0.2,2.4,0.3,3.7c0.1,1.2,0.7,1.9,1.9,2.3
			c1.7,0.6,3.4,0.7,5.1,0.8C66,261.1,66.2,260.3,66.5,259.4z M129.4,242.8c0.3-14,0.7-27.9,1-41.9c-0.3,0-0.4,0-0.6,0
			c-3.9,0-7.8-0.1-11.7-0.1c-2,0-4.1,0.1-6.1,0.1c-2,0-4-0.1-6-0.2c-0.6,0-1.2,0-1.9,0c0,0.2-0.1,0.4-0.1,0.5
			c-0.1,4-0.2,8.1-0.3,12.1c-0.1,5-0.3,10.1-0.5,15.1c-0.1,2.5-0.1,5-0.2,7.5c-0.1,1.9-0.1,3.9-0.2,5.8c0,0.1,0,0.3,0,0.5
			C111.7,242.2,120.5,242.1,129.4,242.8z M64.2,242.6c5.2-0.3,10.5-0.2,15.7-0.2c5.9,0,11.8,0,17.7,0c0.8,0,1.7,0,2.6,0
			c0.2-7.9,0.5-15.7,0.7-23.6c-12.4,0.2-24.8,0.3-37.1,0.5c-0.1,0.5-0.3,22.6-0.2,23.4C63.9,242.6,64,242.6,64.2,242.6z M71,270.8
			c1.3,1.2,2.8,1.7,4.5,1.9c1,0.2,2.1,0.1,3.1,0c1-0.2,1.9-0.7,2.8-1.3c1.4-1.1,2.5-2.4,3.2-4c0.6-1.3,1.1-2.7,1.2-4.2
			c0.2-1.6-0.2-3.2-1-4.6c-1.5-2.5-3.7-4.1-6.6-4.6c-2.2-0.4-4.3,0.1-6.2,1.5c-2.3,1.9-3.4,4.3-3.8,7.2c-0.1,0.4-0.1,0.8-0.1,1.3
			C68.3,266.7,69,269,71,270.8z M109,270.8c1.3,1.2,2.8,1.7,4.5,1.9c0.9,0.1,1.8,0.1,2.7,0c1.2-0.2,2.3-0.6,3.2-1.3
			c1.4-1.1,2.5-2.5,3.3-4.1c0.6-1.3,1-2.7,1.2-4.1c0.2-1.6-0.2-3.2-1.1-4.6c-1.5-2.4-3.6-4.1-6.5-4.5c-2.2-0.4-4.3,0.1-6.2,1.5
			c-2.4,1.9-3.5,4.4-3.8,7.3c0,0.4-0.1,0.8-0.1,1.3C106.3,266.7,107,269,109,270.8z M107.3,191.2c-1.4,0-2.8,0.1-4.2,0.2
			c-1.1,0.1-1.7,0.7-2,1.7c-0.3,1.1-0.5,2.3-0.4,3.5c0,0.6,0.4,1,1,1.2c0.5,0.1,1,0.2,1.5,0.3c3.9,0.1,7.9,0.4,11.8,0.3
			c5.5-0.1,11,0.1,16.6,0c0.6,0,1.2-0.1,1.8-0.1c0.8-0.1,1.3-0.5,1.4-1.2c0.2-0.8,0.3-1.6,0.4-2.5c0-0.6-0.1-1.3-0.2-2
			c-0.1-0.6-0.4-0.9-0.9-1.2c-0.9-0.4-1.8-0.6-2.8-0.6c-2.4-0.2-4.8-0.1-7.1,0c-2.2,0.1-4.4,0.2-7.3,0.4
			C114.1,191.2,110.7,191.1,107.3,191.2z M59,200.5c0.6,1.4,1.6,2.5,2.5,3.8c0.8,1.1,2,1.6,3.3,1.7c2.8,0.3,5.6,0.2,8.4,0
			c1.8-0.1,3.5-0.2,5.3-0.3c0.3,0,0.5,0,0.7-0.3c1.4-1.7,2.9-3.4,4.1-5.3c0.3-0.4,0.5-0.9,0.8-1.4c-0.6-0.4-1.1-0.5-1.7-0.5
			c-1.3-0.1-2.7-0.1-4-0.1c-3.7,0.1-7.4,0.2-11.1,0.4c-2.3,0.1-4.7,0.2-7,0.3c-0.5,0-1,0.1-1.5,0.4C58.6,199.6,58.8,200.1,59,200.5z
			 M78.2,208.3c-4.8,0.2-9.6,0.7-14.4,0.1c0,2.7,0,5.4,0,8.1c0.4,0.1,13,0,14.3-0.1C78.2,213.7,78.1,211,78.2,208.3z"/>
		<path class="st10" d="M115.1,222.1c-0.8-0.1-1.7-0.2-2.4-0.4c-1.8-0.5-3-1.7-3.3-3.6c-0.4-2.2-0.6-4.4-0.5-6.6
			c0-0.9,0.2-1.8,0.5-2.7c0.6-1.5,1.6-2.4,3.2-2.4c1.9-0.1,3.9-0.1,5.8-0.1c1.4,0,2.8,0.2,4.1,0.6c1.8,0.5,2.7,1.7,2.8,3.5
			c0,0.3,0,0.5,0,0.8c0,1.7,0,3.5-0.1,5.2c0,1-0.1,2-0.3,3c-0.2,1-0.9,1.7-1.8,2.2c-0.7,0.3-1.4,0.5-2.1,0.6c-1,0-2,0-2.7,0
			C117,222.3,116.1,222.2,115.1,222.1z M122.8,212c0-0.3,0-0.5,0-0.8c0-1.4-0.2-1.6-1.6-1.9c-2.4-0.5-4.8-0.5-7.2-0.4
			c-0.4,0-0.7,0-1.1,0c-0.6,0-1,0.3-1.2,0.9c-0.1,0.4-0.2,0.8-0.3,1.2c-0.2,2.2,0,4.3,0.3,6.5c0.2,0.9,0.7,1.6,1.6,1.7
			c0.7,0.1,1.5,0.2,2.2,0.3c1.3,0.1,2.6,0.2,3.9,0.2c0.6,0,1.2,0,1.8-0.1c0.9-0.2,1.1-0.4,1.2-1.3c0.1-1.4,0.2-2.8,0.3-4.2
			c0,0,0,0-0.1,0C122.8,213.5,122.8,212.7,122.8,212z"/>
		<path class="st10" d="M95.4,235.3c-1.1,1-2.4,1.4-3.9,1.1c-3.4-0.8-5.4-4.5-4.1-7.6c0.7-1.7,1.9-2.8,3.8-3.1c1.1-0.2,2,0.2,3,0.7
			c1.9,1,2.9,2.5,2.9,5.1C97.1,232.7,96.6,234.1,95.4,235.3z M91.8,233.8c0.9,0.3,1.7,0.1,2.1-0.7c0.4-0.8,0.7-1.7,0.5-2.6
			c-0.1-0.7-0.5-1.2-1-1.5c-0.2-0.1-0.4-0.2-0.6-0.3c-1.5-0.7-2.8,0.1-3.1,1.7c0,0.2,0,0.4-0.1,0.5
			C89.6,232.2,90.5,233.3,91.8,233.8z"/>
		<path class="st10" d="M73,227.7c0.6-1.1,1.6-1.7,2.8-1.9c2.7-0.4,5.4,1.4,6.1,4c0.4,1.7,0.2,3.4-1,4.7c-2.7,3-7.2,1.8-8.3-1.6
			c-0.2-0.6-0.3-1.3-0.4-2C72.2,229.8,72.4,228.7,73,227.7z M76.2,228.4c-0.5,0.1-0.9,0.3-1.1,0.8c-0.5,1.1-0.6,2.2-0.1,3.3
			c0.4,0.9,1.5,1.5,2.4,1.3c0.9-0.2,2-0.9,2-2.1c0-0.1,0-0.2,0-0.3C79.6,229.6,77.8,228.2,76.2,228.4z"/>
	</g>
	<g>
		<path class="st1" d="M239,262.5c0,0.5-0.1,1-0.1,1.5c-0.3,5.5-4.7,10.4-10.1,11.3c-4.3,0.7-7.9-0.7-10.7-3.9
			c-2.2-2.5-3.6-5.5-3.9-8.8c-0.1-0.6-0.1-0.6-0.7-0.6c-3-0.2-6.1-0.2-9.1,0c-0.6,0-1.2,0-1.9,0c0,0.2-0.1,0.4-0.1,0.5
			c0.3,5.8-4.1,11.6-10.3,12.6c-4.3,0.7-7.9-0.6-10.7-3.8c-2.2-2.5-3.6-5.4-4-8.7c0-0.1,0-0.2,0-0.3c0,0,0-0.1-0.1-0.2
			c-0.3,0-0.7,0-1.1-0.1c-1.4-0.2-2.8-0.4-4.1-0.6c-2-0.4-3.4-1.6-4.3-3.4c-0.7-1.3-1-2.7-1.3-4.1c-0.7-3.4-0.9-6.8-0.6-10.3
			c0.1-1.2,0.3-2.4,0.5-3.6c0.6-2.6,2.1-4.5,4.1-6.1c0.6-0.5,1.3-0.9,2-1.3c1.3-0.7,2.1-1.8,2.6-3.1c0.4-1,0.7-2,1.1-3
			c0.5-1.5,1.2-2.9,2-4.3c1.5-2.7,3.8-4.5,6.7-5.4c2.1-0.7,4.2-1.1,6.4-1.4c4.9-0.8,9.8-0.9,14.7-0.8c3.3,0.1,6.6,0.5,9.8,1.3
			c3.6,0.9,6.3,3,8.1,6.3c0.6,1.1,1.1,2.2,1.6,3.4c0.3,0.6,0.5,1.2,0.8,1.8c0.9,2.1,2.5,3.2,4.7,3.5c1.9,0.2,3.8,0.4,5.7,0.5
			c2.1,0.2,4.1,0.5,6.1,1c3.5,0.9,5.8,3.1,7.1,6.4c0.8,2.1,1.3,4.2,1.6,6.4c0.3,2.3,0.3,4.6,0,6.9c-0.4,3.5-2.1,6.3-4.8,8.5
			c-1.3,1.1-2.9,1.6-4.6,1.8c-0.8,0.1-1.7,0.1-2.5,0.2C239.5,262.5,239.3,262.5,239,262.5z M249.1,245.5c-0.3,0-0.6,0-0.8,0
			c-1.9,0-3.8,0.1-5.7-0.3c-1.8-0.4-3.2-1.3-3.8-3.1c-0.2-0.6-0.3-1.3-0.4-1.9c-0.1-1.8-0.2-3.7-0.2-5.5c0-0.2,0-0.5,0-0.8
			c-0.8-0.1-1.6-0.1-2.4-0.2c-1.8-0.2-3.6-0.3-5.3-0.5c-2.9-0.4-5-2-6.3-4.6c-0.4-0.7-0.7-1.5-1-2.3c-0.4-0.9-0.8-1.9-1.3-2.8
			c-1.4-2.6-3.5-4.4-6.4-5.2c-0.4-0.1-0.8-0.2-1.3-0.3c-2.6-0.5-5.2-0.8-7.8-0.9c-3.3-0.1-6.5-0.2-9.8,0.2c-2.2,0.2-4.5,0.5-6.7,0.9
			c-1.7,0.3-3.4,0.7-5,1.3c-1.8,0.7-3.2,1.9-4.2,3.5c-0.8,1.3-1.5,2.6-2,4c-0.4,1.1-0.9,2.3-1.3,3.4c-0.7,1.8-1.9,3.2-3.6,4.2
			c-0.7,0.4-1.4,0.9-2,1.3c-1.8,1.4-2.9,3.1-3.2,5.4c-0.2,1.1-0.3,2.3-0.4,3.4c-0.1,2.8,0.1,5.6,0.6,8.4c0.2,1.2,0.5,2.4,1.1,3.5
			c0.5,1,1.2,1.8,2.3,2c1.5,0.3,2.9,0.5,4.4,0.7c0.2,0,0.4,0,0.6,0c0.3-1.1,0.4-2.2,0.7-3.2c1.3-4.1,4.3-6.7,8.4-7.9
			c1.1-0.3,2.3-0.5,3.5-0.4c3,0.2,5.6,1.4,7.8,3.5c2,2,3.4,4.3,4.1,7c0.1,0.3,0.2,0.5,0.3,0.9c0.7,0,1.3,0.1,1.9,0
			c3.2-0.2,6.4-0.2,9.6,0c0.2,0,0.4,0,0.6,0c0.1-0.7,0.2-1.3,0.4-1.9c1-4.7,4-7.7,8.5-9.1c1.1-0.3,2.2-0.5,3.4-0.4
			c3.1,0.2,5.7,1.4,7.9,3.6c2.1,2.1,3.4,4.7,4.2,7.5c0.1,0.3,0.1,0.5,0.2,0.8c0.9,0.2,3.1,0,4.3-0.3c1-0.3,1.9-0.7,2.7-1.4
			c1.7-1.5,2.8-3.4,3.3-5.6c0.1-0.7,0.2-1.4,0.3-2.1C249.3,248.8,249.3,247.2,249.1,245.5z M190.2,272c1.2,0,2.7-0.3,3.9-0.9
			c3.2-1.6,5.6-5.2,5.2-9.2c-0.3-3-1.3-5.6-3.4-7.9c-1.8-2-4.1-3.1-6.8-3.1c-2.1,0-3.8,0.9-5.5,2.1c-1,0.7-1.8,1.7-2.3,2.8
			c-0.9,1.9-1.2,4-0.9,6.1c0.3,2.6,1.4,4.9,3.1,6.9C185.2,270.8,187.3,272,190.2,272z M227.5,272.3c1.7,0,3.8-0.8,5.5-2.5
			c2.2-2.2,3.2-4.8,2.8-7.8c-0.4-3.3-1.6-6.1-4-8.4c-1.7-1.7-3.8-2.5-6.2-2.5c-1.9,0.1-3.5,0.8-5,1.9c-1.3,0.9-2.1,2-2.7,3.4
			c-0.8,1.9-1,3.9-0.7,5.9c0.3,2.7,1.5,5.1,3.3,7.1C222.2,271.3,224.2,272.3,227.5,272.3z M248.6,242.9c-0.2-1.4-0.8-3.3-1.5-4.5
			c-0.7-1.3-1.7-2.3-3-3c-0.8-0.4-1.7-0.6-2.5-0.9c-0.3-0.1-0.5-0.1-0.9-0.2c0,2.2-0.1,4.3,0.3,6.4c0.2,1.1,0.9,1.7,2,2
			c0.6,0.1,1.2,0.2,1.8,0.2C246.1,243,247.3,243,248.6,242.9z"/>
		<path class="st1" d="M198.2,237.3c-2.9-0.2-6.3-0.4-9.7-0.6c-0.9-0.1-1.7-0.2-2.6-0.5c-1.5-0.5-2.1-1.7-1.9-3.2
			c0.1-0.5,0.1-1,0.2-1.6c0.4-2.2,1.5-4.1,3.2-5.6c2-1.8,4.3-2.8,6.9-3.5c2.5-0.6,5.1-1,7.7-0.9c2.2,0.1,4.3,0.4,6.3,1.1
			c4.2,1.5,6.8,4.5,8.1,8.6c0.6,1.9-0.2,3.7-2,4.6c-0.9,0.5-1.8,0.7-2.8,0.9c-1.7,0.2-3.3,0.4-5,0.5
			C204,237.2,201.3,237.2,198.2,237.3z M200.7,234.6c0.2,0,0.4,0.1,0.5,0.1c1,0,2.1,0,3.1,0c2.3-0.1,4.5-0.1,6.8-0.5
			c0.7-0.1,1.5-0.3,2.1-0.6c0.8-0.3,1.1-1,0.8-1.8c-0.1-0.4-0.2-0.7-0.4-1c-1.2-2.7-3.1-4.7-6-5.7c-2.2-0.8-4.5-1-6.8-1
			c-0.2,0-0.3,0-0.6,0.1C200.4,227.6,200.5,231.1,200.7,234.6z M197.7,224.3c-1.4,0.2-2.8,0.5-4.1,0.9c-1.7,0.6-3.4,1.5-4.7,2.7
			c-1.5,1.4-2.2,3.2-2.3,5.3c0,0.5,0,0.5,0.5,0.6c0.4,0.1,0.8,0.2,1.2,0.2c3.1,0.4,6.2,0.5,9.3,0.5c0.2,0,0.3,0,0.5,0
			C198,231.1,197.9,227.8,197.7,224.3z"/>
	</g>
	<g>
		<path class="st9" d="M285.1,161.6c0.6,0.4,1.1,0.8,1.7,1.3c0.9,0.8,1.7,1.6,2.3,2.7c0.3,0.5,0.5,1.1,0.6,1.7
			c0.1,1.2-0.5,2.2-1.8,2.4c-0.6,0.1-1.3,0.1-1.9-0.1c-1.1-0.2-2.1-0.6-3.1-0.9c-1.1-0.3-2.2-0.7-3.4-0.8c-1.1-0.1-2.2-0.1-3.2,0.2
			c-0.3,0.1-0.7,0.2-0.9,0.6c-0.2,0.6-0.4,1.2-0.4,1.9c0.1,1.1,0.3,2.1,0.6,3.1c0.5,1.6,1.1,3.1,1.6,4.7c0.7,2.3,1.3,4.7,1.4,7.1
			c0.1,1.8-0.1,3.7-0.4,5.5c-0.9,4.9-3,9.3-6.4,12.9c-5.5,5.8-12.4,8.4-20.3,8.7c-2.8,0.1-5.5-0.2-8.3-0.6
			c-8.1-1.3-15.1-4.7-20.9-10.5c-3.1-3.1-5.7-6.6-7.7-10.5c-2.1-4.1-3.3-8.5-3.7-13.2c-0.3-3.6-0.1-7.1,0.8-10.6
			c0.5-1.9,1.3-3.8,2.5-5.4c1-1.2,2.1-2.2,3.6-2.7c2.1-0.7,4-0.1,5.3,1.7c0.3,0.4,0.6,0.9,0.9,1.5c0.4,0.9,0.7,1.8,1.1,2.7
			c0.4,1.1,0.8,2.2,1.2,3.2c0.3,0.7,0.7,1.4,1.3,1.9c0.5,0.5,1.2,0.7,1.9,0.5c0.3-0.1,0.6-0.2,0.9-0.3c0.7-0.3,1.4-0.7,2.1-1
			c1.1-0.5,2.2-1,3.4-1.4c2.5-0.8,5.1-0.5,7.6,0.1c1.7,0.4,3.4,1,5.1,1.4c0.7,0.2,1.4,0.3,2.1,0.3c1.1,0,1.6-0.5,1.8-1.5
			c0.2-0.9,0.2-1.8,0-2.7c-0.4-2.5-0.9-4.9-1-7.4c-0.1-2,0-4,0.6-5.9c0.8-3,2.5-5.4,4.8-7.3c3.4-2.9,7.4-4.1,11.8-3.6
			c2.9,0.3,5.4,1.5,7.7,3.1c2.4,1.8,4.1,4.1,4.9,7c0,0.2,0.1,0.3,0.2,0.5c0.3,0,0.6,0,0.8,0c0.7-0.1,1.4-0.3,2.1-0.4
			c1.2-0.3,2.4-0.6,3.6-0.8c1-0.2,2.1-0.1,3.1,0.2c1.3,0.4,2,1.5,2.1,2.9c0,1-0.3,2-0.9,2.8c-0.8,1.3-1.9,2.2-3.2,2.9
			c-1.3,0.7-2.7,1.2-4.3,1.5C284.8,161.4,285,161.5,285.1,161.6z M218.8,193.4c4.3,6.4,9.8,11.2,17.1,14c3,1.2,6.1,1.9,9.3,2.3
			c1.8,0.2,3.7,0.4,5.5,0.3c5.5-0.1,10.6-1.4,15.1-4.5c5.4-3.7,8.6-8.8,9.7-15.2c0.7-3.8,0.2-7.6-1-11.2c-0.5-1.6-1.1-3.1-1.6-4.7
			c-0.3-1-0.6-2-0.6-3.1c-0.1-2.1,0.6-3.9,1.6-5.6c0.4-0.6,0.8-1.1,1.2-1.7c0.9-1.1,1.8-2.3,2.4-3.6c1.3-2.6,1.6-5.4,0.9-8.2
			c-0.5-2-1.6-3.6-3.2-5c-2.2-1.9-4.8-3.1-7.7-3.3c-3.7-0.3-7,0.9-9.8,3.4c-1.8,1.7-3.2,3.7-3.7,6.2c-0.4,1.8-0.5,3.6-0.2,5.5
			c0.2,2,0.6,4,0.9,6c0.2,1.2,0.2,2.4,0.1,3.6c-0.4,2.5-2.3,4-4.9,3.9c-1.2-0.1-2.3-0.4-3.4-0.6c-1.8-0.5-3.5-0.9-5.3-1.3
			c-2.4-0.5-4.7-0.3-6.9,0.8c-0.9,0.4-1.8,0.9-2.8,1.3c-0.7,0.3-1.4,0.6-2.1,0.7c-1.6,0.3-2.9-0.2-4-1.4c-1-1.1-1.7-2.3-2.2-3.7
			c-0.5-1.3-1-2.7-1.5-4c-0.2-0.5-0.4-1-0.7-1.5c-0.7-1.2-1.7-1.5-3-0.9c-0.9,0.4-1.7,1.1-2.3,1.9c-0.9,1.3-1.5,2.7-1.9,4.2
			c-0.6,2.3-0.9,4.7-0.9,7.4C213.4,181.7,215.1,187.8,218.8,193.4z M281.1,158.7c0.8,0.1,1.6,0.1,2.3,0c1.8-0.2,3.4-0.7,4.9-1.8
			c0.7-0.5,1.4-1.1,1.8-2c0.6-1.2,0.3-1.7-1-1.7c-0.9,0-1.8,0.1-2.7,0.3c-1.6,0.3-3.1,0.8-4.7,1c-0.1,0-0.1,0-0.1,0
			C281.5,156,281.3,157.4,281.1,158.7z M277.6,165.2c0.1,0,0.2,0.1,0.3,0.1c2-0.1,3.9,0.3,5.7,0.9c0.8,0.3,1.7,0.5,2.6,0.8
			c0.2,0.1,0.4,0.1,0.8,0.2c-0.2-0.3-0.3-0.5-0.4-0.7c-0.4-0.5-0.8-1-1.3-1.4c-1.6-1.4-3.4-2.5-5.1-3.6
			C279.3,162.7,278.5,163.9,277.6,165.2z"/>
		<path class="st9" d="M258.2,180.3c1.6,0.4,3.1,1.1,4.4,2.3c1.4,1.3,2.1,2.9,2.1,4.8c-0.1,1.9-0.8,3.7-1.9,5.2
			c-1.1,1.5-2.6,2.5-4.4,3.3c-3.8,1.6-7.7,1.7-11.6,0.7c-5-1.3-9.1-4.2-12.7-7.8c-1.9-2-3-4.4-3.5-7.1c-0.1-0.4-0.1-0.8-0.1-1.2
			c0-0.4,0.2-0.8,0.4-1.2c0.5-0.8,1.1-1,2-0.6c0.4,0.2,0.9,0.4,1.3,0.6c1.6,0.5,3.2,0.8,4.8,0.9c2,0.2,4,0,6-0.1
			c2.2-0.1,4.4-0.3,6-0.4C253.7,179.6,256,179.7,258.2,180.3z M235.1,185.9c0.8,1.1,1.9,2.1,2.9,3c2.7,2.2,5.6,4,8.9,5
			c3.5,1,7,1,10.5-0.5c1.5-0.6,2.8-1.6,3.7-3c0.6-0.9,1-2,1-3.1c0.1-1-0.3-1.9-1-2.6c-0.7-0.8-1.6-1.3-2.6-1.6
			c-1.2-0.4-2.5-0.6-3.8-0.8c-2.4-0.2-4.8-0.1-7.1,0.1c-2.6,0.2-5.3,0.4-7.9,0.3c-2-0.1-3.9-0.5-5.9-1c-0.1,0-0.3-0.1-0.4-0.1
			c0,0-0.1,0-0.2,0C233.5,183.2,234.1,184.6,235.1,185.9z"/>
		<path class="st9" d="M274.3,154.2c0-0.6-0.2-1.4-0.6-2.1c-1.1-1.6-3.1-1.6-4,0.1c-0.7,1.3-0.7,2.6-0.2,3.9c0.2,0.5,0.6,1,1.1,1.3
			c1,0.7,2.3,0.5,3-0.5C274.1,156.3,274.3,155.3,274.3,154.2z"/>
	</g>
	<g>
		<path class="st10" d="M368.8,204.3c-0.3-0.9-0.5-1.8-0.7-2.6c-0.9-2.7-2.5-4.8-4.9-6.4c-2-1.3-4.2-1.8-6.6-1.6
			c-3.9,0.4-6.8,2.4-8.9,5.6c-1,1.6-1.5,3.3-1.6,5.2c0,0.2,0,0.4,0,0.7c-5.1-0.1-10.1-0.5-15.2-0.2c-0.1-0.5-0.1-0.9-0.2-1.4
			c-0.6-2.9-1.8-5.3-4.1-7.3c-2.9-2.5-6.2-3.2-9.8-2.2c-4.1,1.1-6.9,3.8-8.2,7.9c-0.2,0.6-0.3,1.3-0.4,1.9c-0.2,0-0.4,0-0.6,0
			c-2.3,0-4.5-0.1-6.8-0.1c-1,0-1.3-0.2-1.5-1.2c-0.2-1-0.4-2-0.5-3c-0.2-2.7-0.3-5.5-0.1-8.2c0-0.5,0.1-0.9,0.2-1.4
			c0.1-0.7,0.5-1.2,1.2-1.3c1-0.2,2-0.5,3-0.7c3.3-0.5,6.6-0.6,9.9-0.7c6.6-0.2,13.3-0.1,19.9-0.1c4.6,0.1,9.3,0.2,13.9,0.2
			c4.3,0,8.7-0.1,13-0.1c4.1,0,8.2,0,12.3,0.3c0.8,0.1,1.5,0.2,2.3,0.3c0.8,0.1,1.2,0.6,1.4,1.3c0.2,0.9,0.4,1.7,0.5,2.6
			c0.2,1.9,0.1,3.8-0.1,5.8c-0.1,1.2-0.2,2.4-0.3,3.7c-0.1,1.2-0.7,1.9-1.9,2.3C372.3,204.1,370.6,204.2,368.8,204.3z"/>
		<path class="st9" d="M331.7,184.5c-8.9,0-17.7-0.2-26.5,0.5c-0.3-14-0.7-27.9-1-41.9c0.3,0,0.4,0,0.6,0c3.9,0,7.8-0.1,11.7-0.1
			c2,0,4.1,0.1,6.1,0.1c2,0,4-0.1,6-0.2c0.6,0,1.2,0,1.9,0c0,0.2,0.1,0.4,0.1,0.5c0.1,4,0.2,8.1,0.3,12.1c0.1,5,0.3,10.1,0.5,15.1
			c0.1,2.5,0.1,5,0.2,7.5c0.1,1.9,0.1,3.9,0.2,5.8C331.7,184.2,331.7,184.3,331.7,184.5z M316.3,164.6c1.2-0.1,2.2-0.1,3.2-0.2
			c0.8-0.1,1.7-0.2,2.4-0.4c1.8-0.5,3-1.7,3.3-3.6c0.4-2.2,0.6-4.4,0.5-6.6c0-0.9-0.2-1.8-0.5-2.7c-0.6-1.5-1.6-2.4-3.2-2.4
			c-1.9-0.1-3.9-0.1-5.8-0.1c-1.4,0-2.8,0.2-4.1,0.6c-1.8,0.5-2.7,1.7-2.8,3.5c0,0.3,0,0.5,0,0.8c0,1.7,0,3.5,0.1,5.2
			c0,1,0.1,2,0.3,3c0.2,1,0.9,1.7,1.8,2.2c0.7,0.3,1.4,0.5,2.1,0.6C314.6,164.6,315.5,164.6,316.3,164.6z"/>
		<path class="st1" d="M370.9,184.8c-0.2,0-0.4,0-0.6,0c-5.2-0.3-10.5-0.2-15.7-0.2c-5.9,0-11.8,0-17.7,0c-0.8,0-1.7,0-2.6,0
			c-0.2-7.9-0.5-15.7-0.7-23.6c12.4,0.2,24.8,0.3,37.1,0.5C370.9,161.9,371,184,370.9,184.8z M337.5,173.6c0,1.3,0.5,2.7,1.7,3.9
			c1.1,1,2.4,1.4,3.9,1.1c3.4-0.8,5.4-4.5,4.1-7.6c-0.7-1.7-1.9-2.8-3.8-3.1c-1.1-0.2-2,0.2-3,0.7
			C338.5,169.5,337.5,171.1,337.5,173.6z M362.5,173.2c-0.1-1.2-0.3-2.3-0.9-3.3c-0.6-1.1-1.6-1.7-2.8-1.9c-2.7-0.4-5.4,1.4-6.1,4
			c-0.4,1.7-0.2,3.4,1,4.7c2.7,3,7.2,1.8,8.3-1.6C362.2,174.5,362.3,173.9,362.5,173.2z"/>
		<path class="st9" d="M366.4,206.4c-0.1,2.5-0.8,4.9-2.8,6.7c-1.3,1.2-2.8,1.7-4.5,1.9c-1,0.2-2.1,0.1-3.1,0
			c-1-0.2-1.9-0.7-2.8-1.3c-1.4-1.1-2.5-2.4-3.2-4c-0.6-1.3-1.1-2.7-1.2-4.2c-0.2-1.6,0.2-3.2,1-4.6c1.5-2.5,3.7-4.1,6.6-4.6
			c2.2-0.4,4.3,0.1,6.2,1.5c2.3,1.9,3.4,4.3,3.8,7.2C366.3,205.5,366.3,205.9,366.4,206.4z"/>
		<path class="st9" d="M328.3,206.4c-0.1,2.5-0.8,4.8-2.8,6.6c-1.3,1.2-2.8,1.7-4.5,1.9c-0.9,0.1-1.8,0.1-2.7,0
			c-1.2-0.2-2.3-0.6-3.2-1.3c-1.4-1.1-2.5-2.5-3.3-4.1c-0.6-1.3-1-2.7-1.2-4.1c-0.2-1.6,0.2-3.2,1.1-4.6c1.5-2.4,3.6-4.1,6.5-4.5
			c2.2-0.4,4.3,0.1,6.2,1.5c2.4,1.9,3.5,4.4,3.8,7.3C328.3,205.5,328.3,205.9,328.3,206.4z"/>
		<path class="st10" d="M317.8,133.4c2.7,0,6.1,0,9.5,0c1.4,0,2.8,0.1,4.2,0.2c1.1,0.1,1.7,0.7,2,1.7c0.3,1.1,0.5,2.3,0.4,3.5
			c0,0.6-0.4,1-1,1.2c-0.5,0.1-1,0.2-1.5,0.3c-3.9,0.1-7.9,0.4-11.8,0.3c-5.5-0.1-11,0.1-16.6,0c-0.6,0-1.2-0.1-1.8-0.1
			c-0.8-0.1-1.3-0.5-1.4-1.2c-0.2-0.8-0.3-1.6-0.4-2.5c0-0.6,0.1-1.3,0.2-2c0.1-0.6,0.4-0.9,0.9-1.2c0.9-0.4,1.8-0.6,2.8-0.6
			c2.4-0.2,4.8-0.1,7.1,0C312.7,133.1,314.8,133.2,317.8,133.4z"/>
		<path class="st1" d="M375.8,141.3c0.1,0.5-0.1,1-0.3,1.4c-0.6,1.4-1.6,2.5-2.5,3.8c-0.8,1.1-2,1.6-3.3,1.7c-2.8,0.3-5.6,0.2-8.4,0
			c-1.8-0.1-3.5-0.2-5.3-0.3c-0.3,0-0.5,0-0.7-0.3c-1.4-1.7-2.9-3.4-4.1-5.3c-0.3-0.4-0.5-0.9-0.8-1.4c0.6-0.4,1.1-0.5,1.7-0.5
			c1.3-0.1,2.7-0.1,4-0.1c3.7,0.1,7.4,0.2,11.1,0.4c2.3,0.1,4.7,0.2,7,0.3C374.8,141,375.4,141,375.8,141.3z"/>
		<path class="st10" d="M356.5,158.6c-0.1-2.7-0.1-5.4-0.1-8.1c4.8,0.2,9.6,0.7,14.4,0.1c0,2.7,0,5.4,0,8.1
			C370.4,158.9,357.8,158.8,356.5,158.6z"/>
		<path class="st1" d="M311.8,156.4c0-0.7,0-1.4,0-2.2c0-0.3,0-0.5,0-0.8c0-1.4,0.2-1.6,1.6-1.9c2.4-0.5,4.8-0.5,7.2-0.4
			c0.4,0,0.7,0,1.1,0c0.6,0,1,0.3,1.2,0.9c0.1,0.4,0.2,0.8,0.3,1.2c0.2,2.2,0,4.3-0.3,6.5c-0.2,0.9-0.7,1.6-1.6,1.7
			c-0.7,0.1-1.5,0.2-2.2,0.3c-1.3,0.1-2.6,0.2-3.9,0.2c-0.6,0-1.2,0-1.8-0.1c-0.9-0.2-1.1-0.4-1.2-1.3
			C311.9,159.2,311.8,157.8,311.8,156.4C311.7,156.4,311.7,156.4,311.8,156.4z"/>
		<path class="st9" d="M344.9,172.9c0,1.5-0.9,2.6-2.2,3.1c-0.9,0.3-1.7,0.1-2.1-0.7c-0.4-0.8-0.7-1.7-0.5-2.6
			c0.1-0.7,0.5-1.2,1-1.5c0.2-0.1,0.4-0.2,0.6-0.3c1.5-0.7,2.8,0.1,3.1,1.7C344.9,172.6,344.9,172.8,344.9,172.9z"/>
		<path class="st9" d="M355.1,173.5c-0.1-1.6,1.7-3.1,3.2-2.9c0.5,0.1,0.9,0.3,1.1,0.8c0.5,1.1,0.6,2.2,0.1,3.3
			c-0.4,0.9-1.5,1.5-2.4,1.3c-0.9-0.2-2-0.9-2-2.1C355.1,173.7,355.1,173.6,355.1,173.5z"/>
	</g>
	<g>
		<path class="st1" d="M246.9,118.2c0.2,1.7,0.2,3.3,0.1,4.9c0,0.7-0.1,1.4-0.3,2.1c-0.5,2.2-1.6,4.1-3.3,5.6
			c-0.8,0.7-1.7,1.2-2.7,1.4c-1.2,0.3-3.4,0.5-4.3,0.3c-0.1-0.2-0.1-0.5-0.2-0.8c-0.7-2.9-2.1-5.4-4.2-7.5c-2.2-2.2-4.8-3.4-7.9-3.6
			c-1.1-0.1-2.3,0.1-3.4,0.4c-4.6,1.4-7.5,4.4-8.5,9.1c-0.1,0.6-0.2,1.2-0.4,1.9c-0.2,0-0.4,0-0.6,0c-3.2-0.2-6.4-0.2-9.6,0
			c-0.6,0-1.3,0-1.9,0c-0.1-0.3-0.2-0.6-0.3-0.9c-0.8-2.7-2.1-5.1-4.1-7c-2.2-2.1-4.8-3.3-7.8-3.5c-1.2-0.1-2.4,0.1-3.5,0.4
			c-4.1,1.2-7,3.8-8.4,7.9c-0.3,1-0.5,2.1-0.7,3.2c-0.2,0-0.4,0.1-0.6,0c-1.5-0.2-2.9-0.4-4.4-0.7c-1.1-0.2-1.8-1-2.3-2
			c-0.5-1.1-0.9-2.3-1.1-3.5c-0.5-2.8-0.7-5.6-0.6-8.4c0-1.2,0.2-2.3,0.4-3.4c0.3-2.2,1.5-4,3.2-5.4c0.6-0.5,1.3-0.9,2-1.3
			c1.7-1,2.9-2.4,3.6-4.2c0.4-1.1,0.8-2.3,1.3-3.4c0.5-1.4,1.2-2.8,2-4c1-1.7,2.4-2.8,4.2-3.5c1.6-0.6,3.3-1.1,5-1.3
			c2.2-0.3,4.4-0.6,6.7-0.9c3.2-0.3,6.5-0.3,9.8-0.2c2.6,0.1,5.2,0.4,7.8,0.9c0.4,0.1,0.8,0.2,1.3,0.3c2.9,0.8,5,2.6,6.4,5.2
			c0.5,0.9,0.9,1.9,1.3,2.8c0.3,0.8,0.7,1.5,1,2.3c1.3,2.6,3.4,4.2,6.3,4.6c1.8,0.3,3.6,0.4,5.3,0.5c0.8,0.1,1.6,0.1,2.4,0.2
			c0,0.3,0,0.5,0,0.8c0.1,1.8,0.1,3.7,0.2,5.5c0,0.6,0.2,1.3,0.4,1.9c0.6,1.8,2,2.7,3.8,3.1c1.9,0.4,3.8,0.3,5.7,0.3
			C246.3,118.2,246.6,118.2,246.9,118.2z M196.1,110c3.1-0.1,5.8-0.1,8.4-0.2c1.7-0.1,3.3-0.3,5-0.5c1-0.1,1.9-0.4,2.8-0.9
			c1.8-0.9,2.6-2.7,2-4.6c-1.3-4.1-3.9-7.2-8.1-8.6c-2-0.7-4.1-1-6.3-1.1c-2.6-0.1-5.2,0.3-7.7,0.9c-2.5,0.6-4.9,1.7-6.9,3.5
			c-1.7,1.5-2.8,3.3-3.2,5.6c-0.1,0.5-0.1,1-0.2,1.6c-0.2,1.5,0.5,2.7,1.9,3.2c0.8,0.3,1.7,0.5,2.6,0.5
			C189.7,109.6,193.1,109.8,196.1,110z"/>
		<path class="st1" d="M188.1,144.7c-2.9,0-5-1.1-6.8-3.2c-1.7-2-2.8-4.3-3.1-6.9c-0.2-2.1,0-4.1,0.9-6.1c0.5-1.1,1.3-2.1,2.3-2.8
			c1.7-1.2,3.4-2,5.5-2.1c2.7,0,5,1.1,6.8,3.1c2,2.2,3,4.9,3.4,7.9c0.4,4-2,7.6-5.2,9.2C190.7,144.4,189.3,144.7,188.1,144.7z"/>
		<path class="st1" d="M225.3,145c-3.2,0-5.3-1-7-2.9c-1.8-2-3-4.4-3.3-7.1c-0.2-2-0.1-4,0.7-5.9c0.6-1.4,1.5-2.6,2.7-3.4
			c1.5-1,3.1-1.8,5-1.9c2.4-0.1,4.5,0.8,6.2,2.5c2.4,2.3,3.6,5.2,4,8.4c0.3,3.1-0.7,5.7-2.8,7.8C229.1,144.1,227,144.9,225.3,145z"
			/>
		<path class="st1" d="M246.4,115.6c-1.3,0.1-2.5,0.1-3.8,0c-0.6,0-1.2-0.1-1.8-0.2c-1.1-0.2-1.8-0.8-2-2c-0.4-2.1-0.3-4.2-0.3-6.4
			c0.3,0.1,0.6,0.1,0.9,0.2c0.8,0.3,1.7,0.5,2.5,0.9c1.3,0.6,2.3,1.7,3,3C245.6,112.3,246.2,114.2,246.4,115.6z"/>
		<path class="st1" d="M198.5,107.3c-0.1-3.5-0.2-7-0.4-10.6c0.2,0,0.4-0.1,0.6-0.1c2.3-0.1,4.6,0.2,6.8,1c2.9,1,4.8,3,6,5.7
			c0.1,0.3,0.3,0.7,0.4,1c0.3,0.8,0,1.5-0.8,1.8c-0.7,0.3-1.4,0.5-2.1,0.6c-2.2,0.4-4.5,0.5-6.8,0.5c-1,0-2.1,0-3.1,0
			C198.9,107.3,198.7,107.3,198.5,107.3z"/>
		<path class="st1" d="M195.6,96.9c0.1,3.5,0.2,6.9,0.4,10.3c-0.2,0-0.4,0.1-0.5,0c-3.1-0.1-6.2-0.2-9.3-0.5c-0.4,0-0.8-0.1-1.2-0.2
			c-0.5-0.1-0.5-0.2-0.5-0.6c0.1-2,0.8-3.8,2.3-5.3c1.4-1.3,3-2.1,4.7-2.7C192.8,97.4,194.1,97.1,195.6,96.9z"/>
	</g>
	<g>
		<path class="st9" d="M212.8,307.6c-0.2,6.4-1.9,12.6-5.7,18.1c-4.3,6.4-9.8,11.2-17.1,14c-3,1.2-6.1,1.9-9.3,2.3
			c-1.8,0.2-3.7,0.4-5.5,0.3c-5.5-0.1-10.6-1.4-15.1-4.5c-5.4-3.7-8.6-8.8-9.7-15.2c-0.7-3.8-0.2-7.6,1-11.2
			c0.5-1.6,1.1-3.1,1.6-4.7c0.3-1,0.6-2,0.6-3.1c0.1-2.1-0.6-3.9-1.6-5.6c-0.4-0.6-0.8-1.1-1.2-1.7c-0.9-1.1-1.8-2.3-2.4-3.6
			c-1.3-2.6-1.6-5.4-0.9-8.2c0.5-2,1.6-3.6,3.2-5c2.2-1.9,4.8-3.1,7.7-3.3c3.7-0.3,7,0.9,9.8,3.4c1.8,1.7,3.2,3.7,3.7,6.2
			c0.4,1.8,0.5,3.6,0.2,5.5c-0.2,2-0.6,4-0.9,6c-0.2,1.2-0.2,2.4-0.1,3.6c0.4,2.5,2.3,4,4.9,3.9c1.2-0.1,2.3-0.4,3.4-0.6
			c1.8-0.5,3.5-0.9,5.3-1.3c2.4-0.5,4.7-0.3,6.9,0.8c0.9,0.4,1.8,0.9,2.8,1.3c0.7,0.3,1.4,0.6,2.1,0.7c1.6,0.3,2.9-0.2,4-1.4
			c1-1.1,1.7-2.3,2.2-3.7c0.5-1.3,1-2.7,1.5-4c0.2-0.5,0.4-1,0.7-1.5c0.7-1.2,1.7-1.5,3-0.9c0.9,0.4,1.7,1.1,2.3,1.9
			c0.9,1.3,1.5,2.7,1.9,4.2C212.6,302.5,212.8,304.9,212.8,307.6z M175.2,311.8c-2.9,0-5.2,0.2-7.4,0.7c-1.6,0.4-3.1,1.1-4.4,2.3
			c-1.4,1.3-2.1,2.9-2.1,4.8c0.1,1.9,0.8,3.7,1.9,5.2c1.1,1.5,2.6,2.5,4.4,3.3c3.8,1.6,7.7,1.7,11.6,0.7c5-1.3,9.1-4.2,12.7-7.8
			c1.9-2,3-4.4,3.5-7.1c0.1-0.4,0.1-0.8,0.1-1.2c0-0.4-0.2-0.8-0.4-1.2c-0.5-0.8-1.1-1-2-0.6c-0.4,0.2-0.9,0.4-1.3,0.6
			c-1.6,0.5-3.2,0.8-4.8,0.9c-2,0.2-4,0-6-0.1C178.9,312.1,176.7,311.9,175.2,311.8z M151.7,286.5c0,1.1,0.3,2.1,0.8,2.7
			c0.7,1,2,1.2,3,0.5c0.5-0.3,0.8-0.8,1.1-1.3c0.5-1.3,0.5-2.7-0.2-3.9c-0.9-1.7-3-1.7-4-0.1C151.8,285.1,151.7,285.9,151.7,286.5z"
			/>
		<path class="st9" d="M144.3,285.2c0.2,1.8,0.5,3.5,0.7,5.3c-1,0.1-2,0.1-3,0c-2.3-0.2-4.5-1-6.4-2.3c-1-0.7-1.8-1.5-2.3-2.5
			c-0.7-1.5-0.4-2.2,1.3-2.2c1.2,0,2.4,0.2,3.5,0.4c2,0.5,4.1,1,6.2,1.2C144.2,285.2,144.2,285.2,144.3,285.2z"/>
		<path class="st9" d="M145.1,291.8c1.1,1.7,2.2,3.3,3.3,4.9c-0.1,0-0.2,0.1-0.4,0.1c-2.6-0.1-5,0.4-7.4,1.2c-1.1,0.4-2.2,0.7-3.3,1
			c-0.3,0.1-0.5,0.1-1,0.2c0.2-0.4,0.3-0.7,0.5-0.9c0.5-0.6,1.1-1.3,1.7-1.8C140.5,294.6,142.8,293.2,145.1,291.8z"/>
		<path class="st9" d="M192.9,313.9c-0.4,1.6-1,3-1.9,4.3c-0.8,1.1-1.9,2.1-2.9,3c-2.7,2.2-5.6,4-8.9,5c-3.5,1-7,1-10.5-0.5
			c-1.5-0.6-2.8-1.6-3.7-3c-0.6-0.9-1-2-1-3.1c-0.1-1,0.3-1.9,1-2.6c0.7-0.8,1.6-1.3,2.6-1.6c1.2-0.4,2.5-0.6,3.8-0.8
			c2.4-0.2,4.8-0.1,7.1,0.1c2.6,0.2,5.3,0.4,7.9,0.3c2-0.1,3.9-0.5,5.9-1c0.1,0,0.3-0.1,0.4-0.1
			C192.7,313.9,192.7,313.9,192.9,313.9z"/>
	</g>
</g>
</svg>
